<?xml version="1.0" encoding="UTF-8"?>
<!DOCTYPE svg PUBLIC "-//W3C//DTD SVG 1.1//EN" "http://www.w3.org/Graphics/SVG/1.1/DTD/svg11.dtd">
<svg xmlns="http://www.w3.org/2000/svg" version="1.1" width="512px" height="476px" style="shape-rendering:geometricPrecision; text-rendering:geometricPrecision; image-rendering:optimizeQuality; fill-rule:evenodd; clip-rule:evenodd" xmlns:xlink="http://www.w3.org/1999/xlink">
<g><path style="opacity:0.999" fill="#21a365" d="M 133.5,-0.5 C 195.833,-0.5 258.167,-0.5 320.5,-0.5C 320.5,39.1667 320.5,78.8333 320.5,118.5C 308.833,118.5 297.167,118.5 285.5,118.5C 285.338,106.174 279.338,98.3408 267.5,95C 217.834,94.5 168.168,94.3333 118.5,94.5C 118.333,67.8313 118.5,41.1646 119,14.5C 120.413,11.3388 122.08,8.33883 124,5.5C 126.843,2.83733 130.009,0.837327 133.5,-0.5 Z"/></g>
<g><path style="opacity:0.999" fill="#32c380" d="M 320.5,-0.5 C 379.167,-0.5 437.833,-0.5 496.5,-0.5C 503.833,2.16667 508.833,7.16667 511.5,14.5C 511.5,49.1667 511.5,83.8333 511.5,118.5C 447.833,118.5 384.167,118.5 320.5,118.5C 320.5,78.8333 320.5,39.1667 320.5,-0.5 Z"/></g>
<g><path style="opacity:1" fill="#1d935c" d="M 118.5,94.5 C 168.168,94.3333 217.834,94.5 267.5,95C 279.338,98.3408 285.338,106.174 285.5,118.5C 280.833,118.5 276.167,118.5 271.5,118.5C 271.167,118.5 270.833,118.5 270.5,118.5C 267.525,112.699 262.858,108.866 256.5,107C 252.179,106.501 247.846,106.334 243.5,106.5C 201.833,106.5 160.167,106.5 118.5,106.5C 118.5,102.5 118.5,98.5 118.5,94.5 Z"/></g>
<g><path style="opacity:0.996" fill="#16854b" d="M 118.5,106.5 C 134.328,107.331 150.328,107.831 166.5,108C 110.806,140.178 55.1392,172.345 -0.5,204.5C -0.5,176.833 -0.5,149.167 -0.5,121.5C 2.62169,114.881 7.62169,110.047 14.5,107C 49.1651,106.5 83.8317,106.333 118.5,106.5 Z"/></g>
<g><path style="opacity:1" fill="#148147" d="M 118.5,106.5 C 160.167,106.5 201.833,106.5 243.5,106.5C 250.227,108.55 255.56,112.55 259.5,118.5C 259.5,119.167 259.5,119.833 259.5,120.5C 233.5,135.833 207.5,151.167 181.5,166.5C 174.578,166.188 167.744,166.521 161,167.5C 151.496,185.176 141.996,202.842 132.5,220.5C 123.244,202.989 114.244,185.323 105.5,167.5C 94.1667,166.167 82.8333,166.167 71.5,167.5C 80.5549,182.868 89.5549,198.201 98.5,213.5C 66.3575,232.408 34.0242,251.074 1.5,269.5C 0.833247,275.988 0.166581,282.321 -0.5,288.5C -0.5,260.5 -0.5,232.5 -0.5,204.5C 55.1392,172.345 110.806,140.178 166.5,108C 150.328,107.831 134.328,107.331 118.5,106.5 Z"/></g>
<g><path style="opacity:1" fill="#13603b" d="M 243.5,106.5 C 247.846,106.334 252.179,106.501 256.5,107C 262.858,108.866 267.525,112.699 270.5,118.5C 266.833,118.5 263.167,118.5 259.5,118.5C 255.56,112.55 250.227,108.55 243.5,106.5 Z"/></g>
<g><path style="opacity:1" fill="#094826" d="M 259.5,118.5 C 263.167,118.5 266.833,118.5 270.5,118.5C 270.833,118.5 271.167,118.5 271.5,118.5C 271.892,120.179 272.392,121.846 273,123.5C 273.5,161.499 273.667,199.499 273.5,237.5C 269.5,237.5 265.5,237.5 261.5,237.5C 261.5,224.833 261.5,212.167 261.5,199.5C 261.831,173.995 261.498,148.661 260.5,123.5C 260.737,122.209 260.404,121.209 259.5,120.5C 259.5,119.833 259.5,119.167 259.5,118.5 Z"/></g>
<g><path style="opacity:1" fill="#0e703b" d="M 271.5,118.5 C 276.167,118.5 280.833,118.5 285.5,118.5C 285.5,158.167 285.5,197.833 285.5,237.5C 281.5,237.5 277.5,237.5 273.5,237.5C 273.667,199.499 273.5,161.499 273,123.5C 272.392,121.846 271.892,120.179 271.5,118.5 Z"/></g>
<g><path style="opacity:1" fill="#107c40" d="M 285.5,118.5 C 297.167,118.5 308.833,118.5 320.5,118.5C 320.5,158.167 320.5,197.833 320.5,237.5C 308.833,237.5 297.167,237.5 285.5,237.5C 285.5,197.833 285.5,158.167 285.5,118.5 Z"/></g>
<g><path style="opacity:1" fill="#20a265" d="M 320.5,118.5 C 384.167,118.5 447.833,118.5 511.5,118.5C 511.5,158.167 511.5,197.833 511.5,237.5C 447.833,237.5 384.167,237.5 320.5,237.5C 320.5,197.833 320.5,158.167 320.5,118.5 Z"/></g>
<g><path style="opacity:1" fill="#107940" d="M 260.5,123.5 C 261.498,148.661 261.831,173.995 261.5,199.5C 260.833,207.676 260.167,216.01 259.5,224.5C 230.806,241.178 202.139,257.845 173.5,274.5C 165.931,263.038 158.597,251.371 151.5,239.5C 151.414,238.504 151.748,237.671 152.5,237C 188.167,216.5 223.833,196 259.5,175.5C 260.5,158.179 260.833,140.846 260.5,123.5 Z"/></g>
<g><path style="opacity:1" fill="#127e43" d="M 259.5,120.5 C 260.404,121.209 260.737,122.209 260.5,123.5C 260.833,140.846 260.5,158.179 259.5,175.5C 223.833,196 188.167,216.5 152.5,237C 151.748,237.671 151.414,238.504 151.5,239.5C 150.733,238.828 150.066,237.995 149.5,237C 164.084,213.834 178.418,190.5 192.5,167C 188.848,166.501 185.182,166.335 181.5,166.5C 207.5,151.167 233.5,135.833 259.5,120.5 Z"/></g>
<g><path style="opacity:1" fill="#fcfdfd" d="M 181.5,166.5 C 185.182,166.335 188.848,166.501 192.5,167C 178.418,190.5 164.084,213.834 149.5,237C 150.066,237.995 150.733,238.828 151.5,239.5C 158.597,251.371 165.931,263.038 173.5,274.5C 179.893,285.611 186.56,296.611 193.5,307.5C 182.5,308.833 171.5,308.833 160.5,307.5C 157.059,300.94 153.392,294.607 149.5,288.5C 143.615,276.397 137.448,264.397 131,252.5C 120.721,270.888 110.554,289.388 100.5,308C 89.4849,308.832 78.4849,308.666 67.5,307.5C 74.4265,297.308 81.0931,286.975 87.5,276.5C 96.1899,263.635 104.523,250.468 112.5,237C 108.192,228.872 103.525,221.038 98.5,213.5C 89.5549,198.201 80.5549,182.868 71.5,167.5C 82.8333,166.167 94.1667,166.167 105.5,167.5C 114.244,185.323 123.244,202.989 132.5,220.5C 141.996,202.842 151.496,185.176 161,167.5C 167.744,166.521 174.578,166.188 181.5,166.5 Z"/></g>
<g><path style="opacity:0.999" fill="#0e733b" d="M 261.5,199.5 C 261.5,212.167 261.5,224.833 261.5,237.5C 261.5,241.167 261.5,244.833 261.5,248.5C 260.82,256.902 260.154,265.402 259.5,274C 205.104,305.527 150.77,337.027 96.5,368.5C 68.7593,368.824 41.0927,368.491 13.5,367.5C 58.4703,340.677 103.804,314.343 149.5,288.5C 153.392,294.607 157.059,300.94 160.5,307.5C 171.5,308.833 182.5,308.833 193.5,307.5C 186.56,296.611 179.893,285.611 173.5,274.5C 202.139,257.845 230.806,241.178 259.5,224.5C 260.167,216.01 260.833,207.676 261.5,199.5 Z"/></g>
<g><path style="opacity:1" fill="#127e43" d="M 98.5,213.5 C 103.525,221.038 108.192,228.872 112.5,237C 104.523,250.468 96.1899,263.635 87.5,276.5C 87.631,275.761 87.4643,275.094 87,274.5C 57.8878,291.638 28.7212,308.638 -0.5,325.5C -0.5,313.167 -0.5,300.833 -0.5,288.5C 0.166581,282.321 0.833247,275.988 1.5,269.5C 34.0242,251.074 66.3575,232.408 98.5,213.5 Z"/></g>
<g><path style="opacity:1" fill="#0e3520" d="M 261.5,237.5 C 265.5,237.5 269.5,237.5 273.5,237.5C 273.5,279.167 273.5,320.833 273.5,362.5C 268.231,376.699 257.897,382.699 242.5,380.5C 256.603,376.279 262.603,366.946 260.5,352.5C 261.486,334.243 261.82,315.91 261.5,297.5C 261.5,281.167 261.5,264.833 261.5,248.5C 261.5,244.833 261.5,241.167 261.5,237.5 Z"/></g>
<g><path style="opacity:1" fill="#155332" d="M 273.5,237.5 C 277.5,237.5 281.5,237.5 285.5,237.5C 285.667,282.835 285.5,328.168 285,373.5C 283.918,381.367 279.752,386.7 272.5,389.5C 273.383,380.533 273.716,371.533 273.5,362.5C 273.5,320.833 273.5,279.167 273.5,237.5 Z"/></g>
<g><path style="opacity:0.999" fill="#185b36" d="M 285.5,237.5 C 297.167,237.5 308.833,237.5 320.5,237.5C 320.5,277.167 320.5,316.833 320.5,356.5C 384.167,356.5 447.833,356.5 511.5,356.5C 511.5,391.167 511.5,425.833 511.5,460.5C 508.833,467.833 503.833,472.833 496.5,475.5C 375.5,475.5 254.5,475.5 133.5,475.5C 130.009,474.163 126.843,472.163 124,469.5C 122.08,466.661 120.413,463.661 119,460.5C 118.5,441.836 118.333,423.17 118.5,404.5C 164.168,404.667 209.835,404.5 255.5,404C 262.836,402.487 267.836,398.32 270.5,391.5C 271.5,391.167 272.167,390.5 272.5,389.5C 279.752,386.7 283.918,381.367 285,373.5C 285.5,328.168 285.667,282.835 285.5,237.5 Z"/></g>
<g><path style="opacity:1" fill="#107b40" d="M 320.5,237.5 C 384.167,237.5 447.833,237.5 511.5,237.5C 511.5,277.167 511.5,316.833 511.5,356.5C 447.833,356.5 384.167,356.5 320.5,356.5C 320.5,316.833 320.5,277.167 320.5,237.5 Z"/></g>
<g><path style="opacity:1" fill="#0c6d36" d="M 261.5,248.5 C 261.5,264.833 261.5,281.167 261.5,297.5C 260.833,306.009 260.167,314.676 259.5,323.5C 234.038,337.8 208.705,352.3 183.5,367C 161.663,367.168 139.996,367.668 118.5,368.5C 111.167,368.5 103.833,368.5 96.5,368.5C 150.77,337.027 205.104,305.527 259.5,274C 260.154,265.402 260.82,256.902 261.5,248.5 Z"/></g>
<g><path style="opacity:0.998" fill="#10793f" d="M 149.5,288.5 C 103.804,314.343 58.4703,340.677 13.5,367.5C 7.13877,364.472 2.4721,359.805 -0.5,353.5C -0.5,344.167 -0.5,334.833 -0.5,325.5C 28.7212,308.638 57.8878,291.638 87,274.5C 87.4643,275.094 87.631,275.761 87.5,276.5C 81.0931,286.975 74.4265,297.308 67.5,307.5C 78.4849,308.666 89.4849,308.832 100.5,308C 110.554,289.388 120.721,270.888 131,252.5C 137.448,264.397 143.615,276.397 149.5,288.5 Z"/></g>
<g><path style="opacity:1" fill="#0b6832" d="M 261.5,297.5 C 261.82,315.91 261.486,334.243 260.5,352.5C 257.812,360.858 252.145,366.024 243.5,368C 201.835,368.5 160.168,368.667 118.5,368.5C 139.996,367.668 161.663,367.168 183.5,367C 208.705,352.3 234.038,337.8 259.5,323.5C 260.167,314.676 260.833,306.009 261.5,297.5 Z"/></g>
<g><path style="opacity:1" fill="#0b2a1a" d="M 260.5,352.5 C 262.603,366.946 256.603,376.279 242.5,380.5C 201.167,380.5 159.833,380.5 118.5,380.5C 118.5,376.5 118.5,372.5 118.5,368.5C 160.168,368.667 201.835,368.5 243.5,368C 252.145,366.024 257.812,360.858 260.5,352.5 Z"/></g>
<g><path style="opacity:1" fill="#114228" d="M 273.5,362.5 C 273.716,371.533 273.383,380.533 272.5,389.5C 272.167,390.5 271.5,391.167 270.5,391.5C 219.863,392.486 169.196,392.82 118.5,392.5C 118.5,388.5 118.5,384.5 118.5,380.5C 159.833,380.5 201.167,380.5 242.5,380.5C 257.897,382.699 268.231,376.699 273.5,362.5 Z"/></g>
<g><path style="opacity:1" fill="#134a2c" d="M 270.5,391.5 C 267.836,398.32 262.836,402.487 255.5,404C 209.835,404.5 164.168,404.667 118.5,404.5C 118.5,400.5 118.5,396.5 118.5,392.5C 169.196,392.82 219.863,392.486 270.5,391.5 Z"/></g>
</svg>
